<svg width="25" height="24" viewBox="0 0 25 24" fill="none" xmlns="http://www.w3.org/2000/svg">
<g clip-path="url(#clip0_523_44)">
<path d="M18.5 10H24.5L21.5 6L18.5 10ZM18.5 14H24.5L21.5 18L18.5 14Z" fill="#56CCF2"/>
<path d="M1.5 0H7.5V24H1.5C1.23478 24 0.980429 23.8946 0.792892 23.7071C0.605356 23.5196 0.5 23.2652 0.5 23V1C0.5 0.734784 0.605356 0.480429 0.792892 0.292892C0.980429 0.105356 1.23478 0 1.5 0Z" fill="#2D9CDB"/>
<path d="M9.5 0H15.5C15.7652 0 16.0196 0.105356 16.2071 0.292892C16.3946 0.480429 16.5 0.734784 16.5 1V23C16.5 23.2652 16.3946 23.5196 16.2071 23.7071C16.0196 23.8946 15.7652 24 15.5 24H9.5V0Z" fill="#2D9CDB"/>
</g>
<defs>
<clipPath id="clip0_523_44">
<rect width="24" height="24" fill="white" transform="translate(0.5)"/>
</clipPath>
</defs>
</svg>
