<svg width="25" height="24" viewBox="0 0 25 24" fill="none" xmlns="http://www.w3.org/2000/svg">
<path d="M9.5 10H2.5C2.23478 10 1.98043 9.89464 1.79289 9.70711C1.60536 9.51957 1.5 9.26522 1.5 9V2C1.5 1.73478 1.60536 1.48043 1.79289 1.29289C1.98043 1.10536 2.23478 1 2.5 1H9.5C9.76522 1 10.0196 1.10536 10.2071 1.29289C10.3946 1.48043 10.5 1.73478 10.5 2V9C10.5 9.26522 10.3946 9.51957 10.2071 9.70711C10.0196 9.89464 9.76522 10 9.5 10Z" fill="#2D9CDB"/>
<path d="M9.5 23H2.5C2.23478 23 1.98043 22.8946 1.79289 22.7071C1.60536 22.5196 1.5 22.2652 1.5 22V15C1.5 14.7348 1.60536 14.4804 1.79289 14.2929C1.98043 14.1054 2.23478 14 2.5 14H9.5C9.76522 14 10.0196 14.1054 10.2071 14.2929C10.3946 14.4804 10.5 14.7348 10.5 15V22C10.5 22.2652 10.3946 22.5196 10.2071 22.7071C10.0196 22.8946 9.76522 23 9.5 23Z" fill="#2D9CDB"/>
<path d="M13.5 2H23.5V4H13.5V2Z" fill="#2D9CDB"/>
<path d="M23.5 15H13.5V17H23.5V15Z" fill="#2D9CDB"/>
<path d="M23.5 20H13.5V22H23.5V20Z" fill="#56CCF2"/>
<path d="M23.5 7H13.5V9H23.5V7Z" fill="#56CCF2"/>
</svg>
