<svg width="25" height="24" viewBox="0 0 25 24" fill="none" xmlns="http://www.w3.org/2000/svg">
<path d="M5.5 1H2.5C2.23478 1 1.98043 1.10536 1.79289 1.29289C1.60536 1.48043 1.5 1.73478 1.5 2V22C1.5 22.2652 1.60536 22.5196 1.79289 22.7071C1.98043 22.8946 2.23478 23 2.5 23H5.5V1Z" fill="#56CCF2"/>
<path d="M7.5 23H17.5V1H7.5V23ZM12.5 19C12.2348 19 11.9804 18.8946 11.7929 18.7071C11.6054 18.5196 11.5 18.2652 11.5 18C11.5 17.7348 11.6054 17.4804 11.7929 17.2929C11.9804 17.1054 12.2348 17 12.5 17C12.7652 17 13.0196 17.1054 13.2071 17.2929C13.3946 17.4804 13.5 17.7348 13.5 18C13.5 18.2652 13.3946 18.5196 13.2071 18.7071C13.0196 18.8946 12.7652 19 12.5 19ZM12.5 5C12.7652 5 13.0196 5.10536 13.2071 5.29289C13.3946 5.48043 13.5 5.73478 13.5 6C13.5 6.26522 13.3946 6.51957 13.2071 6.70711C13.0196 6.89464 12.7652 7 12.5 7C12.2348 7 11.9804 6.89464 11.7929 6.70711C11.6054 6.51957 11.5 6.26522 11.5 6C11.5 5.73478 11.6054 5.48043 11.7929 5.29289C11.9804 5.10536 12.2348 5 12.5 5ZM12.5 11C12.7652 11 13.0196 11.1054 13.2071 11.2929C13.3946 11.4804 13.5 11.7348 13.5 12C13.5 12.2652 13.3946 12.5196 13.2071 12.7071C13.0196 12.8946 12.7652 13 12.5 13C12.2348 13 11.9804 12.8946 11.7929 12.7071C11.6054 12.5196 11.5 12.2652 11.5 12C11.5 11.7348 11.6054 11.4804 11.7929 11.2929C11.9804 11.1054 12.2348 11 12.5 11Z" fill="#2D9CDB"/>
<path d="M22.5 1H19.5V23H22.5C22.7652 23 23.0196 22.8946 23.2071 22.7071C23.3946 22.5196 23.5 22.2652 23.5 22V2C23.5 1.73478 23.3946 1.48043 23.2071 1.29289C23.0196 1.10536 22.7652 1 22.5 1Z" fill="#2D9CDB"/>
</svg>
